<?xml version="1.0" encoding="utf-8"?>
<!-- Generator: Adobe Illustrator 17.0.0, SVG Export Plug-In . SVG Version: 6.00 Build 0)  -->
<!DOCTYPE svg PUBLIC "-//W3C//DTD SVG 1.0//EN" "http://www.w3.org/TR/2001/REC-SVG-20010904/DTD/svg10.dtd">
<svg version="1.0" id="Capa_1" xmlns="http://www.w3.org/2000/svg" xmlns:xlink="http://www.w3.org/1999/xlink" x="0px" y="0px"
	 width="320px" height="320px" viewBox="0 0 320 320" enable-background="new 0 0 320 320" xml:space="preserve">
<g opacity="0.15">
	<g>
		<g>
			<path id="SVGID_1_" fill="#9D9D9C" d="M41.317,78.441c-0.816,6.92-2.466,15.284-5.307,24.302
				c-2.831,9.012-6.786,18.499-11.615,27.577c-4.776,8.878-9.918,16.475-14.94,22.331C4.593,158.358,0,161.817,0,161.817v8.826
				v3.943c0,0,6.486-1.646,13.335-6.835c7.14-5.353,15.161-14.468,21.937-26.792c7.012-12.604,11.551-26.492,13.594-38.398
				c2.074-11.855,1.715-21.446,0.399-28.354c-1.274-6.75-3.419-11.011-5.039-13.624c-1.613-2.529-2.742-3.55-2.742-3.589
				C41.35,57.035,42.911,64.741,41.317,78.441"/>
		</g>
		<g>
			<defs>
				<path id="SVGID_2_" d="M41.317,78.441c-0.816,6.92-2.466,15.284-5.307,24.302c-2.831,9.012-6.786,18.499-11.615,27.577
					c-4.776,8.878-9.918,16.475-14.94,22.331C4.593,158.358,0,161.817,0,161.817v8.826v3.943c0,0,6.486-1.646,13.335-6.835
					c7.14-5.353,15.161-14.468,21.937-26.792c7.012-12.604,11.551-26.492,13.594-38.398c2.074-11.855,1.715-21.446,0.399-28.354
					c-1.274-6.75-3.419-11.011-5.039-13.624c-1.613-2.529-2.742-3.55-2.742-3.589C41.35,57.035,42.911,64.741,41.317,78.441"/>
			</defs>
			<clipPath id="SVGID_4_">
				<use xlink:href="#SVGID_2_"  overflow="visible"/>
			</clipPath>
			<rect x="-16.688" y="56.996" clip-path="url(#SVGID_4_)" fill="#9D9D9C" width="67.628" height="117.979"/>
		</g>
	</g>
	<g>
		<g>
			<path id="SVGID_3_" fill="#9D9D9C" d="M110.128,32.147C99.542,33.9,88.869,43.415,85.592,53.505
				c-3.237,10.066,1.789,17.934,11.88,17.577c10.843-0.405,23.304-10.036,27.067-21.539c3.386-10.373-1.78-17.671-11.135-17.671
				C112.362,31.872,111.26,31.959,110.128,32.147"/>
		</g>
		<g>
			<defs>
				<path id="SVGID_6_" d="M110.128,32.147C99.542,33.9,88.869,43.415,85.592,53.505c-3.237,10.066,1.789,17.934,11.88,17.577
					c10.843-0.405,23.304-10.036,27.067-21.539c3.386-10.373-1.78-17.671-11.135-17.671
					C112.362,31.872,111.26,31.959,110.128,32.147"/>
			</defs>
			<clipPath id="SVGID_8_">
				<use xlink:href="#SVGID_6_"  overflow="visible"/>
			</clipPath>
			<rect x="82.354" y="31.872" clip-path="url(#SVGID_8_)" fill="#9D9D9C" width="45.57" height="39.566"/>
		</g>
	</g>
	<g>
		<g>
			<path id="SVGID_5_" fill="#9D9D9C" d="M158.975,56.114c-10.063,6.821-21.447,13.17-32.985,17.478
				c-10.81,4.076-21.579,6.277-31.415,6.382c-9.172,0.008-16.811-1.857-22.659-5.052c-5.571-3.012-9.622-7.258-12.374-11.595
				c-5.25-8.315-6.116-17.019-6.247-16.804c0.011,0.023-0.632,2.75-1.237,7.436c-0.58,4.671-1.108,11.381-0.289,18.6
				c0.82,7.388,3.146,15.508,8.178,22.134c5.249,6.998,13.819,12.514,25.433,13.58c12.638,1.321,27.394-2.757,41.091-10.012
				c14.88-7.814,28.041-18.913,38.348-29.831c10.783-11.426,18.178-22.244,22.938-29.92c4.813-7.829,6.868-12.306,6.95-12.344l0,0
				C194.377,26.167,180.527,41.455,158.975,56.114"/>
		</g>
		<g>
			<defs>
				<path id="SVGID_10_" d="M158.975,56.114c-10.063,6.821-21.447,13.17-32.985,17.478c-10.81,4.076-21.579,6.277-31.415,6.382
					c-9.172,0.008-16.811-1.857-22.659-5.052c-5.571-3.012-9.622-7.258-12.374-11.595c-5.25-8.315-6.116-17.019-6.247-16.804
					c0.011,0.023-0.632,2.75-1.237,7.436c-0.58,4.671-1.108,11.381-0.289,18.6c0.82,7.388,3.146,15.508,8.178,22.134
					c5.249,6.998,13.819,12.514,25.433,13.58c12.638,1.321,27.394-2.757,41.091-10.012c14.88-7.814,28.041-18.913,38.348-29.831
					c10.783-11.426,18.178-22.244,22.938-29.92c4.813-7.829,6.868-12.306,6.95-12.344l0,0
					C194.377,26.167,180.527,41.455,158.975,56.114"/>
			</defs>
			<clipPath id="SVGID_12_">
				<use xlink:href="#SVGID_10_"  overflow="visible"/>
			</clipPath>
			<rect x="50.948" y="26.167" clip-path="url(#SVGID_12_)" fill="#9D9D9C" width="143.757" height="83.428"/>
		</g>
	</g>
	<g>
		<g>
			<path id="SVGID_7_" fill="#9D9D9C" d="M193.854,124.107c-15.655,2.827-27.798,19.144-28.172,37.094
				c-0.359,18.418,11.725,33.572,28.184,33.395c17.854-0.205,33.082-18.08,32.582-39.326c-0.456-18.669-12.935-31.585-27.88-31.585
				C197.018,123.685,195.445,123.818,193.854,124.107"/>
		</g>
		<g>
			<defs>
				<path id="SVGID_14_" d="M193.854,124.107c-15.655,2.827-27.798,19.144-28.172,37.094c-0.359,18.418,11.725,33.572,28.184,33.395
					c17.854-0.205,33.082-18.08,32.582-39.326c-0.456-18.669-12.935-31.585-27.88-31.585
					C197.018,123.685,195.445,123.818,193.854,124.107"/>
			</defs>
			<clipPath id="SVGID_16_">
				<use xlink:href="#SVGID_14_"  overflow="visible"/>
			</clipPath>
			<rect x="165.322" y="123.685" clip-path="url(#SVGID_16_)" fill="#9D9D9C" width="61.625" height="71.089"/>
		</g>
	</g>
	<g>
		<g>
			<path id="SVGID_9_" fill="#9D9D9C" d="M199.249,48.915c-8.368,5.114-19.811,12.793-31.513,23.623
				c-11.116,10.273-22.549,23.582-31.258,39.556c-8.495,15.475-14.646,34.172-15.584,53.476
				c-1.128,19.864,3.287,39.115,10.881,55.147c8.131,17.349,19.971,31.47,32.097,42.222c13.167,11.697,26.484,19.434,36.409,24.493
				c10.536,5.32,16.889,7.494,16.927,7.59c0.474-0.12-19.795-16.672-37.261-43.499c-7.946-12.234-15.117-26.548-19.738-42.016
				c-4.451-14.751-6.635-30.778-6.226-47.171c0.526-16.015,3.494-31.45,8.412-45.482c4.894-14.093,11.843-27.095,19.198-38.105
				c15.277-22.895,32.062-37.65,31.678-37.664C213.233,41.161,208.009,43.612,199.249,48.915"/>
		</g>
		<g>
			<defs>
				<path id="SVGID_17_" d="M199.249,48.915c-8.368,5.114-19.811,12.793-31.513,23.623c-11.116,10.273-22.549,23.582-31.258,39.556
					c-8.495,15.475-14.646,34.172-15.584,53.476c-1.128,19.864,3.287,39.115,10.881,55.147c8.131,17.349,19.971,31.47,32.097,42.222
					c13.167,11.697,26.484,19.434,36.409,24.493c10.536,5.32,16.889,7.494,16.927,7.59c0.474-0.12-19.795-16.672-37.261-43.499
					c-7.946-12.234-15.117-26.548-19.738-42.016c-4.451-14.751-6.635-30.778-6.226-47.171c0.526-16.015,3.494-31.45,8.412-45.482
					c4.894-14.093,11.843-27.095,19.198-38.105c15.277-22.895,32.062-37.65,31.678-37.664
					C213.233,41.161,208.009,43.612,199.249,48.915"/>
			</defs>
			<clipPath id="SVGID_18_">
				<use xlink:href="#SVGID_17_"  overflow="visible"/>
			</clipPath>
			<rect x="119.767" y="41.084" clip-path="url(#SVGID_18_)" fill="#9D9D9C" width="97.915" height="253.938"/>
		</g>
	</g>
	<g>
		<g>
			<path id="SVGID_11_" fill="#9D9D9C" d="M25.221,219.899c-5.327,13.203-1.135,28.832,10.287,34.885
				c12.33,6.499,27.414-0.884,32.625-16.394c4.992-14.876-1.635-30.117-13.783-34.332c-2.118-0.724-4.289-1.076-6.44-1.076
				C38.55,202.982,29.407,209.541,25.221,219.899"/>
		</g>
		<g>
			<defs>
				<path id="SVGID_19_" d="M25.221,219.899c-5.327,13.203-1.135,28.832,10.287,34.885c12.33,6.499,27.414-0.884,32.625-16.394
					c4.992-14.876-1.635-30.117-13.783-34.332c-2.118-0.724-4.289-1.076-6.44-1.076C38.55,202.982,29.407,209.541,25.221,219.899"/>
			</defs>
			<clipPath id="SVGID_20_">
				<use xlink:href="#SVGID_19_"  overflow="visible"/>
			</clipPath>
			<rect x="19.894" y="202.982" clip-path="url(#SVGID_20_)" fill="#9D9D9C" width="53.231" height="58.301"/>
		</g>
	</g>
	<g>
		<g>
			<path id="SVGID_13_" fill="#9D9D9C" d="M31.466,166.145C20.156,171.159,0,189.327,0,189.327v6.513v3.857v2.143
				c0,0,19.074-9.586,28.178-10.893c9.467-1.406,19.733-0.736,30.153,2.427c11.042,3.482,21.487,9.576,30.597,17.768
				c9.836,8.778,18.144,19.946,24.672,31.441c14.578,25.682,19.884,50.598,20.169,50.22c-0.061-0.08,0.746-6.722,0.678-18.546
				c-0.104-11.311-1.036-27.018-5.347-44.043c-3.967-15.718-10.821-32.08-21.61-45.178c-9.699-11.874-22.638-20.794-37.245-23.735
				c-3.86-0.818-7.739-1.198-11.586-1.198C49.101,160.101,39.744,162.436,31.466,166.145"/>
		</g>
		<g>
			<defs>
				<path id="SVGID_21_" d="M31.466,166.145C20.156,171.159,0,189.327,0,189.327v6.513v3.857v2.143c0,0,19.074-9.586,28.178-10.893
					c9.467-1.406,19.733-0.736,30.153,2.427c11.042,3.482,21.487,9.576,30.597,17.768c9.836,8.778,18.144,19.946,24.672,31.441
					c14.578,25.682,19.884,50.598,20.169,50.22c-0.061-0.08,0.746-6.722,0.678-18.546c-0.104-11.311-1.036-27.018-5.347-44.043
					c-3.967-15.718-10.821-32.08-21.61-45.178c-9.699-11.874-22.638-20.794-37.245-23.735c-3.86-0.818-7.739-1.198-11.586-1.198
					C49.101,160.101,39.744,162.436,31.466,166.145"/>
			</defs>
			<clipPath id="SVGID_22_">
				<use xlink:href="#SVGID_21_"  overflow="visible"/>
			</clipPath>
			<rect x="-20.558" y="160.101" clip-path="url(#SVGID_22_)" fill="#9D9D9C" width="155.072" height="133.078"/>
		</g>
	</g>
	<g>
		<g>
			<path id="SVGID_15_" fill="#9D9D9C" d="M8.756,115.02c-4.583,8.971-5.768,18.922-2.625,22.493
				c3.283,3.73,10.058-0.727,15.122-10.269c5.163-9.742,6.238-20.407,2.472-23.555c-0.702-0.578-1.516-0.849-2.407-0.849
				C17.596,102.842,12.522,107.641,8.756,115.02"/>
		</g>
		<g>
			<defs>
				<path id="SVGID_23_" d="M8.756,115.02c-4.583,8.971-5.768,18.922-2.625,22.493c3.283,3.73,10.058-0.727,15.122-10.269
					c5.163-9.742,6.238-20.407,2.472-23.555c-0.702-0.578-1.516-0.849-2.407-0.849C17.596,102.842,12.522,107.641,8.756,115.02"/>
			</defs>
			<clipPath id="SVGID_24_">
				<use xlink:href="#SVGID_23_"  overflow="visible"/>
			</clipPath>
			<rect x="2.988" y="102.84" clip-path="url(#SVGID_24_)" fill="#9D9D9C" width="24.503" height="38.402"/>
		</g>
	</g>
</g>
</svg>
