<?xml version="1.0" encoding="utf-8"?>
<!-- Generator: Adobe Illustrator 17.0.0, SVG Export Plug-In . SVG Version: 6.00 Build 0)  -->
<!DOCTYPE svg PUBLIC "-//W3C//DTD SVG 1.0//EN" "http://www.w3.org/TR/2001/REC-SVG-20010904/DTD/svg10.dtd">
<svg version="1.0" id="Capa_1" xmlns="http://www.w3.org/2000/svg" xmlns:xlink="http://www.w3.org/1999/xlink" x="0px" y="0px"
	 width="80px" height="80px" viewBox="0 0 80 80" enable-background="new 0 0 80 80" xml:space="preserve">
<g>
	<g opacity="0.7">
		<polygon fill="#FFFFFF" points="6,20.112 18.245,20.112 34.225,43.591 34.225,20.112 46.586,20.112 46.586,62.551 34.225,62.551 
			18.333,39.248 18.333,62.551 6,62.551 		"/>
		<path fill="#FFFFFF" d="M34.256,62.551V20.112h21.856c4.052,0,7.151,0.347,9.293,1.042s3.869,1.984,5.182,3.865
			c1.312,1.882,1.969,4.174,1.969,6.875c0,2.355-0.502,4.386-1.507,6.095c-1.004,1.707-2.385,3.092-4.142,4.153
			c-1.118,0.676-2.654,1.235-4.605,1.679c1.561,0.522,2.7,1.043,3.414,1.565c0.482,0.348,1.18,1.091,2.097,2.231
			c0.915,1.139,1.529,2.018,1.837,2.637L76,62.551H61.182l-7.009-12.969c-0.887-1.679-1.679-2.769-2.375-3.272
			c-0.945-0.655-2.016-0.984-3.212-0.984h-1.158v17.225H34.256z M47.427,37.308h5.53c0.597,0,1.756-0.193,3.473-0.58
			c0.869-0.174,1.578-0.617,2.128-1.332c0.55-0.714,0.824-1.534,0.824-2.46c0-1.371-0.433-2.422-1.302-3.156
			c-0.869-0.733-2.5-1.099-4.893-1.099h-5.761v8.627H47.427z"/>
	</g>
	<g enable-background="new    ">
		<g>
			<defs>
				<path id="SVGID_1_" d="M24.2,22.351c-0.166,1.402-0.499,3.097-1.076,4.926c-0.573,1.827-1.375,3.748-2.354,5.588
					c-0.968,1.8-2.011,3.339-3.028,4.526c-0.986,1.156-1.936,1.97-2.743,2.501c-1.549,1.015-2.556,1.028-2.553,1.06
					c0.005-0.004,0.199,0.202,0.601,0.442c0.414,0.24,1.058,0.521,1.949,0.495c0.928-0.023,2.144-0.387,3.531-1.438
					c1.448-1.085,3.073-2.933,4.446-5.43c1.421-2.554,2.342-5.369,2.756-7.782c0.42-2.404,0.347-4.347,0.081-5.746
					c-0.259-1.369-0.693-2.232-1.022-2.762c-0.326-0.512-0.555-0.719-0.555-0.727C24.206,18.012,24.522,19.574,24.2,22.351"/>
			</defs>
			<clipPath id="SVGID_2_">
				<use xlink:href="#SVGID_1_"  overflow="visible"/>
			</clipPath>
			
				<radialGradient id="SVGID_3_" cx="-482.0397" cy="-261.4915" r="0.5688" gradientTransform="matrix(-74.9857 0 0 74.9857 -36135.0117 19638.0801)" gradientUnits="userSpaceOnUse">
				<stop  offset="0" style="stop-color:#FFFFFF"/>
				<stop  offset="1" style="stop-color:#FFFFFF;stop-opacity:0"/>
			</radialGradient>
			<rect x="12.443" y="18.005" clip-path="url(#SVGID_2_)" fill="url(#SVGID_3_)" width="13.706" height="23.911"/>
		</g>
	</g>
	<g enable-background="new    ">
		<g>
			
				<radialGradient id="SVGID_5_" cx="273.1251" cy="-201.8857" r="4.0643" gradientTransform="matrix(1 0 0 -1 -236 -185)" gradientUnits="userSpaceOnUse">
				<stop  offset="0" style="stop-color:#FFFFFF"/>
				<stop  offset="1" style="stop-color:#FFFFFF;stop-opacity:0"/>
			</radialGradient>
			<path id="SVGID_4_" opacity="0.7" fill="url(#SVGID_5_)" enable-background="new    " d="M38.144,12.968
				c-2.145,0.355-4.309,2.283-4.973,4.328c-0.655,2.041,0.364,3.635,2.408,3.563c2.197-0.082,4.723-2.034,5.486-4.366
				c0.687-2.102-0.36-3.582-2.257-3.582C38.598,12.912,38.374,12.93,38.144,12.968"/>
		</g>
		<g>
			<defs>
				<path id="SVGID_6_" d="M38.144,12.968c-2.145,0.355-4.309,2.283-4.973,4.328c-0.655,2.041,0.364,3.635,2.408,3.563
					c2.197-0.082,4.723-2.034,5.486-4.366c0.687-2.102-0.36-3.582-2.257-3.582C38.598,12.912,38.374,12.93,38.144,12.968"/>
			</defs>
			<clipPath id="SVGID_7_">
				<use xlink:href="#SVGID_6_"  overflow="visible"/>
			</clipPath>
			
				<radialGradient id="SVGID_8_" cx="-464.4796" cy="-258.8815" r="0.5697" gradientTransform="matrix(43.2249 0 0 43.2249 20106.4492 11198.0947)" gradientUnits="userSpaceOnUse">
				<stop  offset="0" style="stop-color:#FFFFFF"/>
				<stop  offset="1" style="stop-color:#FFFFFF;stop-opacity:0"/>
			</radialGradient>
			<rect x="32.516" y="12.912" clip-path="url(#SVGID_7_)" fill="url(#SVGID_8_)" width="9.236" height="8.02"/>
		</g>
	</g>
	<g enable-background="new    ">
		<g>
			<defs>
				<path id="SVGID_9_" d="M48.045,17.825c-2.04,1.382-4.347,2.669-6.686,3.543c-2.19,0.825-4.373,1.272-6.366,1.293
					c-1.86,0.002-3.407-0.376-4.593-1.023c-1.129-0.61-1.951-1.471-2.508-2.35c-1.065-1.686-1.24-3.45-1.266-3.406
					c0.002,0.004-0.128,0.558-0.251,1.506c-0.118,0.947-0.224,2.307-0.059,3.771c0.166,1.496,0.638,3.142,1.658,4.485
					c1.063,1.419,2.8,2.536,5.154,2.752c2.562,0.269,5.552-0.558,8.328-2.028c3.017-1.585,5.684-3.834,7.772-6.046
					c2.186-2.316,3.686-4.509,4.649-6.065c0.976-1.586,1.392-2.494,1.409-2.501v-0.001C55.22,11.756,52.413,14.854,48.045,17.825"/>
			</defs>
			<clipPath id="SVGID_10_">
				<use xlink:href="#SVGID_9_"  overflow="visible"/>
			</clipPath>
			
				<radialGradient id="SVGID_12_" cx="-464.6702" cy="-259.1533" r="0.5698" gradientTransform="matrix(43.2249 0 0 43.2249 20125.6133 11225.457)" gradientUnits="userSpaceOnUse">
				<stop  offset="0" style="stop-color:#FFFFFF"/>
				<stop  offset="1" style="stop-color:#FFFFFF;stop-opacity:0"/>
			</radialGradient>
			<rect x="26.151" y="11.756" clip-path="url(#SVGID_10_)" fill="url(#SVGID_12_)" width="29.135" height="16.909"/>
		</g>
	</g>
	<g enable-background="new    ">
		<g>
			
				<radialGradient id="SVGID_13_" cx="291.5619" cy="-223.7057" r="6.6926" gradientTransform="matrix(1 0 0 -1 -236 -185)" gradientUnits="userSpaceOnUse">
				<stop  offset="0" style="stop-color:#FFFFFF"/>
				<stop  offset="1" style="stop-color:#FFFFFF;stop-opacity:0"/>
			</radialGradient>
			<path id="SVGID_11_" opacity="0.7" fill="url(#SVGID_13_)" enable-background="new    " d="M55.114,31.606
				c-3.173,0.573-5.634,3.88-5.71,7.518c-0.073,3.732,2.376,6.804,5.712,6.768c3.619-0.041,6.705-3.664,6.603-7.97
				c-0.092-3.785-2.621-6.402-5.65-6.402C55.755,31.52,55.436,31.548,55.114,31.606"/>
		</g>
		<g>
			<defs>
				<path id="SVGID_14_" d="M55.114,31.606c-3.173,0.573-5.634,3.88-5.71,7.518c-0.073,3.732,2.376,6.804,5.712,6.768
					c3.619-0.041,6.705-3.664,6.603-7.97c-0.092-3.785-2.621-6.402-5.65-6.402C55.755,31.52,55.436,31.548,55.114,31.606"/>
			</defs>
			<clipPath id="SVGID_16_">
				<use xlink:href="#SVGID_14_"  overflow="visible"/>
			</clipPath>
			
				<radialGradient id="SVGID_17_" cx="-479.5199" cy="-262.5688" r="0.5674" gradientTransform="matrix(-113.2245 0 0 113.2245 -54235.5039 29768.4512)" gradientUnits="userSpaceOnUse">
				<stop  offset="0" style="stop-color:#FFFFFF"/>
				<stop  offset="1" style="stop-color:#FFFFFF;stop-opacity:0"/>
			</radialGradient>
			<rect x="49.331" y="31.52" clip-path="url(#SVGID_16_)" fill="url(#SVGID_17_)" width="12.49" height="14.408"/>
		</g>
	</g>
	<g enable-background="new    ">
		<g>
			
				<radialGradient id="SVGID_18_" cx="286.0716" cy="-225.5115" r="19.4662" gradientTransform="matrix(1 0 0 -1 -236 -185)" gradientUnits="userSpaceOnUse">
				<stop  offset="0" style="stop-color:#FFFFFF"/>
				<stop  offset="1" style="stop-color:#FFFFFF;stop-opacity:0"/>
			</radialGradient>
			<path id="SVGID_15_" opacity="0.7" fill="url(#SVGID_18_)" enable-background="new    " d="M56.207,16.366
				c-1.695,1.037-4.015,2.593-6.387,4.788c-2.252,2.082-4.568,4.779-6.334,8.017c-1.722,3.137-2.968,6.926-3.158,10.837
				c-0.229,4.027,0.666,7.929,2.206,11.177c1.648,3.517,4.047,6.379,6.505,8.559c2.669,2.37,5.368,3.938,7.38,4.964
				c2.135,1.077,3.422,1.518,3.43,1.538c0.096-0.025-4.011-3.379-7.552-8.816c-1.609-2.481-3.063-5.381-4-8.517
				c-0.902-2.988-1.344-6.237-1.262-9.56c0.108-3.246,0.71-6.374,1.706-9.219c0.991-2.856,2.4-5.491,3.89-7.723
				c3.096-4.64,6.499-7.631,6.42-7.633C59.042,14.795,57.982,15.292,56.207,16.366"/>
		</g>
		<g>
			<defs>
				<path id="SVGID_20_" d="M56.207,16.366c-1.695,1.037-4.015,2.593-6.387,4.788c-2.252,2.082-4.568,4.779-6.334,8.017
					c-1.722,3.137-2.968,6.926-3.158,10.837c-0.229,4.027,0.666,7.929,2.206,11.177c1.648,3.517,4.047,6.379,6.505,8.559
					c2.669,2.37,5.368,3.938,7.38,4.964c2.135,1.077,3.422,1.518,3.43,1.538c0.096-0.025-4.011-3.379-7.552-8.816
					c-1.609-2.481-3.063-5.381-4-8.517c-0.902-2.988-1.344-6.237-1.262-9.56c0.108-3.246,0.71-6.374,1.706-9.219
					c0.991-2.856,2.4-5.491,3.89-7.723c3.096-4.64,6.499-7.631,6.42-7.633C59.042,14.795,57.982,15.292,56.207,16.366"/>
			</defs>
			<clipPath id="SVGID_21_">
				<use xlink:href="#SVGID_20_"  overflow="visible"/>
			</clipPath>
			
				<radialGradient id="SVGID_22_" cx="-479.4705" cy="-262.5645" r="0.5694" gradientTransform="matrix(-113.2245 0 0 113.2245 -54222.4219 29767.4707)" gradientUnits="userSpaceOnUse">
				<stop  offset="0" style="stop-color:#FFFFFF"/>
				<stop  offset="1" style="stop-color:#FFFFFF;stop-opacity:0"/>
			</radialGradient>
			<rect x="40.098" y="14.779" clip-path="url(#SVGID_21_)" fill="url(#SVGID_22_)" width="19.845" height="51.467"/>
		</g>
	</g>
	<g enable-background="new    ">
		<g>
			
				<radialGradient id="SVGID_23_" cx="261.2225" cy="-238.0797" r="5.1332" gradientTransform="matrix(1 0 0 -1 -236 -185)" gradientUnits="userSpaceOnUse">
				<stop  offset="0" style="stop-color:#FFFFFF"/>
				<stop  offset="1" style="stop-color:#FFFFFF;stop-opacity:0"/>
			</radialGradient>
			<path id="SVGID_19_" opacity="0.7" fill="url(#SVGID_23_)" enable-background="new    " d="M20.936,51.02
				c-1.08,2.676-0.23,5.844,2.085,7.071c2.5,1.317,5.556-0.18,6.613-3.322c1.011-3.016-0.332-6.106-2.794-6.959
				c-0.43-0.148-0.871-0.219-1.306-0.219C23.638,47.591,21.785,48.922,20.936,51.02"/>
		</g>
		<g>
			<defs>
				<path id="SVGID_24_" d="M20.936,51.02c-1.08,2.676-0.23,5.844,2.085,7.071c2.5,1.317,5.556-0.18,6.613-3.322
					c1.011-3.016-0.332-6.106-2.794-6.959c-0.43-0.148-0.871-0.219-1.306-0.219C23.638,47.591,21.785,48.922,20.936,51.02"/>
			</defs>
			<clipPath id="SVGID_25_">
				<use xlink:href="#SVGID_24_"  overflow="visible"/>
			</clipPath>
			
				<radialGradient id="SVGID_27_" cx="-464.4066" cy="-259.6711" r="0.5691" gradientTransform="matrix(43.2249 0 0 43.2249 20099.1563 11277.3252)" gradientUnits="userSpaceOnUse">
				<stop  offset="0" style="stop-color:#FFFFFF"/>
				<stop  offset="1" style="stop-color:#FFFFFF;stop-opacity:0"/>
			</radialGradient>
			<rect x="19.857" y="47.591" clip-path="url(#SVGID_25_)" fill="url(#SVGID_27_)" width="10.789" height="11.817"/>
		</g>
	</g>
	<g enable-background="new    ">
		<g>
			<defs>
				<path id="SVGID_28_" d="M22.201,40.126c-2.292,1.017-4.277,2.57-5.831,4.109c-1.559,1.548-2.731,3.113-3.51,4.24
					c-0.788,1.149-1.183,1.853-1.192,1.855c-0.01,0.059,1.945-1.939,4.823-3.473c1.467-0.781,3.2-1.44,5.045-1.705
					c1.92-0.285,3.999-0.149,6.112,0.492c2.237,0.706,4.355,1.942,6.202,3.6c1.994,1.779,3.677,4.043,4.999,6.373
					c2.955,5.205,4.029,10.255,4.088,10.178c-0.012-0.016,0.151-1.363,0.138-3.76c-0.022-2.292-0.21-5.475-1.085-8.926
					c-0.803-3.186-2.192-6.503-4.378-9.156c-1.967-2.407-4.588-4.215-7.55-4.811c-0.782-0.166-1.567-0.243-2.347-0.243
					C25.776,38.901,23.879,39.374,22.201,40.126"/>
			</defs>
			<clipPath id="SVGID_29_">
				<use xlink:href="#SVGID_28_"  overflow="visible"/>
			</clipPath>
			
				<radialGradient id="SVGID_30_" cx="-464.4442" cy="-259.7032" r="0.5695" gradientTransform="matrix(43.2249 0 0 43.2249 20102.9277 11280.6064)" gradientUnits="userSpaceOnUse">
				<stop  offset="0" style="stop-color:#FFFFFF"/>
				<stop  offset="1" style="stop-color:#FFFFFF;stop-opacity:0"/>
			</radialGradient>
			<rect x="11.658" y="38.901" clip-path="url(#SVGID_29_)" fill="url(#SVGID_30_)" width="31.43" height="26.972"/>
		</g>
	</g>
	<g enable-background="new    ">
		<g>
			
				<radialGradient id="SVGID_31_" cx="254.8995" cy="-215.9421" r="3.0072" gradientTransform="matrix(1 0 0 -1 -236 -185)" gradientUnits="userSpaceOnUse">
				<stop  offset="0" style="stop-color:#FFFFFF"/>
				<stop  offset="1" style="stop-color:#FFFFFF;stop-opacity:0"/>
			</radialGradient>
			<path id="SVGID_26_" opacity="0.7" fill="url(#SVGID_31_)" enable-background="new    " d="M17.6,29.764
				c-0.929,1.818-1.169,3.835-0.533,4.559c0.665,0.756,2.038-0.148,3.066-2.081c1.045-1.974,1.264-4.136,0.499-4.774
				c-0.141-0.117-0.307-0.172-0.486-0.172C19.39,27.296,18.363,28.268,17.6,29.764"/>
		</g>
		<g>
			<defs>
				<path id="SVGID_32_" d="M17.6,29.764c-0.929,1.818-1.169,3.835-0.533,4.559c0.665,0.756,2.038-0.148,3.066-2.081
					c1.045-1.974,1.264-4.136,0.499-4.774c-0.141-0.117-0.307-0.172-0.486-0.172C19.39,27.296,18.363,28.268,17.6,29.764"/>
			</defs>
			<clipPath id="SVGID_33_">
				<use xlink:href="#SVGID_32_"  overflow="visible"/>
			</clipPath>
			
				<radialGradient id="SVGID_34_" cx="-482.0804" cy="-261.3917" r="0.5688" gradientTransform="matrix(-74.9857 0 0 74.9857 -36142.1406 19620.748)" gradientUnits="userSpaceOnUse">
				<stop  offset="0" style="stop-color:#FFFFFF"/>
				<stop  offset="1" style="stop-color:#FFFFFF;stop-opacity:0"/>
			</radialGradient>
			<rect x="16.431" y="27.295" clip-path="url(#SVGID_33_)" fill="url(#SVGID_34_)" width="4.966" height="7.784"/>
		</g>
	</g>
</g>
</svg>
