<?xml version="1.0" encoding="utf-8"?>
<!-- Generator: Adobe Illustrator 17.0.0, SVG Export Plug-In . SVG Version: 6.00 Build 0)  -->
<!DOCTYPE svg PUBLIC "-//W3C//DTD SVG 1.0//EN" "http://www.w3.org/TR/2001/REC-SVG-20010904/DTD/svg10.dtd">
<svg version="1.0" id="Capa_1" xmlns="http://www.w3.org/2000/svg" xmlns:xlink="http://www.w3.org/1999/xlink" x="0px" y="0px"
	 width="320px" height="80px" viewBox="0 0 320 80" enable-background="new 0 0 320 80" xml:space="preserve">
<g id="Capa_2">
	<rect fill="#E30817" width="320" height="80"/>
	<g>
		<polygon fill="none" points="248.724,80 256.607,80 251.109,73.447 		"/>
		<polygon opacity="0.3" fill="#631310" enable-background="new    " points="61.532,62.62 39.595,34.234 52.485,2.809 
			8.549,22.056 3.025,71.75 14.238,80 58.036,80 		"/>
		<polygon opacity="0.4" fill="#631310" enable-background="new    " points="94.621,31.624 94.337,34.18 102.332,31.486 
			110.84,38.98 117.083,23.761 98.72,0 53.637,0 52.485,2.809 54.347,1.993 		"/>
		<polygon opacity="0.3" fill="#631310" enable-background="new    " points="61.532,62.62 65.284,43.972 94.337,34.18 
			94.621,31.624 54.347,1.993 52.485,2.809 39.595,34.234 		"/>
		<polygon opacity="0.4" fill="#631310" enable-background="new    " points="61.532,62.62 65.284,43.972 94.337,34.18 
			94.621,31.624 54.347,1.993 52.485,2.809 39.595,34.234 		"/>
		<polygon opacity="0.5" fill="#631310" enable-background="new    " points="91.31,61.41 89.244,80 127.109,80 131.67,57.327 
			110.84,38.98 102.246,59.932 		"/>
		<polygon opacity="0.3" fill="#631310" enable-background="new    " points="63.502,65.169 61.532,62.62 58.036,80 89.244,80 
			91.31,61.41 		"/>
		<polygon opacity="0.5" fill="#631310" enable-background="new    " points="63.502,65.169 61.532,62.62 58.036,80 89.244,80 
			91.31,61.41 		"/>
		<polygon opacity="0.4" fill="#631310" enable-background="new    " points="94.337,34.18 91.31,61.41 102.246,59.932 
			110.84,38.98 102.332,31.486 		"/>
		<polygon opacity="0.5" fill="#631310" enable-background="new    " points="94.337,34.18 91.31,61.41 102.246,59.932 
			110.84,38.98 102.332,31.486 		"/>
		<polygon opacity="0.3" fill="#631310" enable-background="new    " points="91.31,61.41 94.337,34.18 65.284,43.972 61.532,62.62 
			63.502,65.169 		"/>
		<polygon opacity="0.4" fill="#631310" enable-background="new    " points="91.31,61.41 94.337,34.18 65.284,43.972 61.532,62.62 
			63.502,65.169 		"/>
		<polygon opacity="0.5" fill="#631310" enable-background="new    " points="91.31,61.41 94.337,34.18 65.284,43.972 61.532,62.62 
			63.502,65.169 		"/>
		<polygon opacity="0.5" fill="#A41916" enable-background="new    " points="204.109,33.161 205.901,5.588 197.529,0 125.699,0 
			125.031,0.33 121.995,47.021 160.913,72.995 185.716,60.747 195.185,34.734 		"/>
		<polygon opacity="0.5" fill="#A41916" enable-background="new    " points="251.109,73.447 232.192,50.9 238.092,34.692 
			232.594,28.14 204.109,33.161 202.866,52.279 185.716,60.747 182.192,70.428 190.223,80 248.724,80 		"/>
		<polygon opacity="0.5" fill="#A41916" enable-background="new    " points="204.109,33.161 195.185,34.734 185.716,60.747 
			202.866,52.279 		"/>
		<polygon opacity="0.5" fill="#A41916" enable-background="new    " points="204.109,33.161 195.185,34.734 185.716,60.747 
			202.866,52.279 		"/>
		<polygon opacity="0.3" fill="#E3787E" enable-background="new    " points="251.109,73.447 256.607,80 294.016,73.406 
			304.761,43.889 300.722,46.681 270.317,32.276 268.593,11.08 245.185,15.206 238.092,34.692 257.01,57.239 		"/>
		<polygon opacity="0.5" fill="#A41916" enable-background="new    " points="251.109,73.447 257.01,57.239 238.092,34.692 
			232.192,50.9 		"/>
		<polygon opacity="0.3" fill="#E3787E" enable-background="new    " points="251.109,73.447 257.01,57.239 238.092,34.692 
			232.192,50.9 		"/>
		<polygon opacity="0.2" fill="#E3787E" enable-background="new    " points="307.01,37.711 304.761,43.889 320,33.357 320,0 
			267.691,0 268.593,11.08 282.594,8.612 		"/>
		<polygon opacity="0.3" fill="#E3787E" enable-background="new    " points="300.722,46.681 304.761,43.889 307.01,37.711 
			282.594,8.612 268.593,11.08 270.317,32.276 		"/>
		<polygon opacity="0.2" fill="#E3787E" enable-background="new    " points="300.722,46.681 304.761,43.889 307.01,37.711 
			282.594,8.612 268.593,11.08 270.317,32.276 		"/>
	</g>
	
		<linearGradient id="SVGID_1_" gradientUnits="userSpaceOnUse" x1="292.9317" y1="-381.9317" x2="466.7953" y2="-208.0683" gradientTransform="matrix(1 0 0 -1 -266 -275)">
		<stop  offset="0" style="stop-color:#260C0D"/>
		<stop  offset="0.1499" style="stop-color:#280D0E"/>
		<stop  offset="0.2876" style="stop-color:#311112"/>
		<stop  offset="0.4204" style="stop-color:#3F1617"/>
		<stop  offset="0.5504" style="stop-color:#531C1C"/>
		<stop  offset="0.6782" style="stop-color:#6E201E"/>
		<stop  offset="0.8044" style="stop-color:#93211F"/>
		<stop  offset="0.927" style="stop-color:#C11B1C"/>
		<stop  offset="1" style="stop-color:#E30817"/>
	</linearGradient>
	<polygon opacity="0.4" fill="url(#SVGID_1_)" enable-background="new    " points="0,0 0,80 267.727,0 	"/>
	
		<linearGradient id="SVGID_2_" gradientUnits="userSpaceOnUse" x1="437.8723" y1="-377.7093" x2="563.2907" y2="-252.2907" gradientTransform="matrix(1 0 0 -1 -266 -275)">
		<stop  offset="0" style="stop-color:#E30817"/>
		<stop  offset="0.0535" style="stop-color:#CF1018"/>
		<stop  offset="0.1611" style="stop-color:#B01618"/>
		<stop  offset="0.2779" style="stop-color:#971717"/>
		<stop  offset="0.4053" style="stop-color:#851715"/>
		<stop  offset="0.5485" style="stop-color:#791614"/>
		<stop  offset="0.7208" style="stop-color:#721512"/>
		<stop  offset="1" style="stop-color:#6F1512"/>
	</linearGradient>
	<rect x="149.163" opacity="0.7" fill="url(#SVGID_2_)" enable-background="new    " width="170.837" height="80"/>
</g>
<g id="Capa_3">
	<path fill="#FFFFFF" d="M0,80c0,0,130.092-14.831,190.649-11.756C250.333,71.274,320,58.452,320,54.07S320,80,320,80H0z"/>
</g>
<g id="Capa_4">
	<path fill="#FFFFFF" d="M0,80"/>
	
		<linearGradient id="SVGID_3_" gradientUnits="userSpaceOnUse" x1="266" y1="-327.255" x2="586.0091" y2="-327.255" gradientTransform="matrix(1 0 0 -1 -266 -275)">
		<stop  offset="0" style="stop-color:#E30817;stop-opacity:0.3"/>
		<stop  offset="0.1413" style="stop-color:#E30817;stop-opacity:0.3989"/>
		<stop  offset="1" style="stop-color:#E30817"/>
	</linearGradient>
	<path opacity="0.8" fill="url(#SVGID_3_)" enable-background="new    " d="M0,80c0,0,320-30.624,320-55.49v28.686
		C320,53.196,326.388,70.392,0,80z"/>
</g>
<g id="Capa_1_1_">
	<g>
		<path fill="#FFFFFF" d="M21.472,38.622v-0.046c0-4.806,3.749-8.393,8.554-8.393c3.542,0,5.933,1.725,7.29,4.185l-4.438,2.599
			c-0.598-1.15-1.449-1.955-2.92-1.955c-1.817,0-3.012,1.586-3.012,3.518v0.046c0,2.093,1.242,3.564,3.012,3.564
			c1.518,0,2.369-0.828,3.035-2.023l4.438,2.507c-1.356,2.392-3.61,4.346-7.611,4.346C25.358,46.969,21.472,43.611,21.472,38.622z"
			/>
		<path fill="#FFFFFF" d="M37.641,38.622v-0.046c0-4.668,3.84-8.393,8.807-8.393s8.761,3.679,8.761,8.347v0.046
			c0,4.667-3.84,8.393-8.807,8.393S37.641,43.289,37.641,38.622z M49.782,38.622v-0.046c0-1.909-1.311-3.633-3.38-3.633
			c-2.046,0-3.334,1.702-3.334,3.587v0.046c0,1.909,1.311,3.633,3.38,3.633C48.495,42.209,49.782,40.507,49.782,38.622z"/>
		<path fill="#FFFFFF" d="M56.685,30.527h5.036l5.726,7.105v-7.105h5.334v16.097h-4.783l-5.979-7.427v7.427h-5.335L56.685,30.527
			L56.685,30.527z"/>
		<path fill="#FFFFFF" d="M73.291,44.209l2.875-3.426c1.748,1.334,3.748,1.886,5.634,1.886c0.966,0,1.38-0.253,1.38-0.69v-0.046
			c0-0.46-0.506-0.713-2.23-1.057c-3.61-0.736-6.784-1.771-6.784-5.174v-0.046c0-3.058,2.392-5.427,6.83-5.427
			c3.104,0,5.404,0.736,7.266,2.208l-2.621,3.633c-1.518-1.104-3.334-1.587-4.829-1.587c-0.805,0-1.173,0.276-1.173,0.667v0.046
			c0,0.437,0.437,0.713,2.139,1.035c4.116,0.759,6.875,1.955,6.875,5.196v0.046c0,3.381-2.782,5.45-7.105,5.45
			C78.281,46.923,75.338,46.003,73.291,44.209z"/>
		<path fill="#FFFFFF" d="M89.758,39.404v-8.876h5.473v8.807c0,2,1.035,2.851,2.484,2.851s2.483-0.781,2.483-2.736v-8.922h5.473
			v8.761c0,5.496-3.196,7.658-8.002,7.658C92.863,46.946,89.758,44.738,89.758,39.404z"/>
		<path fill="#FFFFFF" d="M107.376,30.527h5.381v11.497h7.565v4.6h-12.946V30.527z"/>
		<path fill="#FFFFFF" d="M123.315,35.081h-4.737v-4.553h14.855v4.553h-4.737v11.543h-5.38L123.315,35.081L123.315,35.081z"/>
		<path fill="#FFFFFF" d="M138.195,30.413h5.334l6.784,16.211h-5.841l-0.851-2.162h-5.634l-0.828,2.162h-5.749L138.195,30.413z
			 M142.288,40.646l-1.472-3.909l-1.472,3.909H142.288z"/>
		<path fill="#FFFFFF" d="M160.942,35.081h-4.737v-4.553h14.855v4.553h-4.737v11.543h-5.381V35.081z"/>
		<path fill="#FFFFFF" d="M172.145,39.404v-8.876h5.473v8.807c0,2,1.034,2.851,2.483,2.851c1.448,0,2.483-0.781,2.483-2.736v-8.922
			h5.473v8.761c0,5.496-3.196,7.658-8.002,7.658C175.248,46.946,172.145,44.738,172.145,39.404z"/>
		<path fill="#FFFFFF" d="M195.604,30.527h7.243c4.277,0,7.197,1.909,7.197,5.726v0.046c0,3.886-2.966,5.956-7.313,5.956h-1.747
			v4.369h-5.381L195.604,30.527L195.604,30.527z M202.434,38.415c1.38,0,2.3-0.621,2.3-1.771v-0.046
			c0-1.173-0.851-1.771-2.276-1.771h-1.472v3.587L202.434,38.415L202.434,38.415z"/>
		<path fill="#FFFFFF" d="M211.198,30.527h7.864c2.852,0,4.668,0.713,5.795,1.84c0.966,0.966,1.472,2.162,1.472,3.817v0.046
			c0,2.345-1.219,3.978-3.174,4.921l3.748,5.473h-6.14l-3.035-4.6h-1.149v4.6h-5.381V30.527z M218.901,38.185
			c1.288,0,2.069-0.575,2.069-1.564v-0.046c0-1.035-0.805-1.541-2.046-1.541h-2.346v3.15L218.901,38.185L218.901,38.185z"/>
		<path fill="#FFFFFF" d="M227.644,30.527h13.728v4.415h-8.438v1.633h7.864v3.886h-7.864v1.748h8.554v4.415h-13.843L227.644,30.527
			L227.644,30.527z"/>
		<path fill="#FFFFFF" d="M242.938,30.527h6.162c6.393,0,9.589,3.15,9.589,7.911v0.046c0,4.759-3.265,8.14-9.772,8.14h-5.979
			L242.938,30.527L242.938,30.527z M249.216,41.933c2.461,0,4.047-1.011,4.047-3.334v-0.046c0-2.322-1.586-3.334-4.047-3.334h-0.896
			v6.714H249.216z"/>
		<path fill="#FFFFFF" d="M260.211,30.527h5.381v16.097h-5.381V30.527z"/>
		<path fill="#FFFFFF" d="M273.089,30.413h5.335l6.784,16.211h-5.841l-0.852-2.162h-5.634l-0.827,2.162h-5.749L273.089,30.413z
			 M277.183,40.646l-1.472-3.909l-1.472,3.909H277.183z"/>
		<path fill="#FFFFFF" d="M285.879,30.527h5.381v11.497h7.565v4.6h-12.946V30.527z"/>
	</g>
</g>
</svg>
